<svg xmlns="http://www.w3.org/2000/svg" viewBox="0 0 343.36 88.4"><defs><style>.cls-1{fill:#0957d0;}</style></defs><title>Recurso 2</title><g id="Capa_2" data-name="Capa 2"><g id="Capa_1-2" data-name="Capa 1"><path class="cls-1" d="M107.64,23.28h10.77V66.15H107.64Zm9.62,42.87V56.07h6.95a14.17,14.17,0,0,0,4.89-.79,9.64,9.64,0,0,0,6-5.85,13.26,13.26,0,0,0,.81-4.77,13.64,13.64,0,0,0-.81-4.9,9.37,9.37,0,0,0-2.32-3.53,9.81,9.81,0,0,0-3.68-2.15,15.51,15.51,0,0,0-4.89-.72h-6.95V23.28h6.48a28.47,28.47,0,0,1,10,1.62A20.26,20.26,0,0,1,141,29.39,18.57,18.57,0,0,1,145.35,36a22,22,0,0,1,1.45,8v1.27a20.82,20.82,0,0,1-1.45,7.62A19.84,19.84,0,0,1,141,59.63a21.07,21.07,0,0,1-7.22,4.75,26.3,26.3,0,0,1-10,1.77Z"/><path class="cls-1" d="M168.18,67.07a20.88,20.88,0,0,1-7.54-1.27,16.22,16.22,0,0,1-5.59-3.53,15.34,15.34,0,0,1-3.47-5.22,16.78,16.78,0,0,1-1.19-6.31V49.35a16.83,16.83,0,0,1,1.25-6.49,15.45,15.45,0,0,1,3.56-5.27,16.32,16.32,0,0,1,5.62-3.54,22,22,0,0,1,14.74,0,16.38,16.38,0,0,1,5.59,3.54,15.45,15.45,0,0,1,3.56,5.27A16.83,16.83,0,0,1,186,49.35v1.39a16.78,16.78,0,0,1-1.19,6.31,15.34,15.34,0,0,1-3.47,5.22,16.22,16.22,0,0,1-5.59,3.53,20.82,20.82,0,0,1-7.53,1.27m0-8.8a7.23,7.23,0,0,0,4-1,6.54,6.54,0,0,0,2.41-2.93,11.7,11.7,0,0,0,0-8.63,7,7,0,0,0-12.81,0,10.61,10.61,0,0,0-.84,4.37,10.48,10.48,0,0,0,.82,4.26,6.39,6.39,0,0,0,2.43,2.93,7.28,7.28,0,0,0,4,1"/><path class="cls-1" d="M191.75,65.92v-32h8.34V47.73h-.46a23.43,23.43,0,0,1,1.25-8.26,10,10,0,0,1,3.68-4.92,10.37,10.37,0,0,1,6-1.65H211a10.35,10.35,0,0,1,6,1.65,10.13,10.13,0,0,1,3.65,4.92,23.43,23.43,0,0,1,1.25,8.26h-2.44a23.43,23.43,0,0,1,1.25-8.26,10,10,0,0,1,3.68-4.92,10.37,10.37,0,0,1,6-1.65h.47a10.62,10.62,0,0,1,6,1.65,10.32,10.32,0,0,1,3.77,4.92,22.68,22.68,0,0,1,1.3,8.26V65.92H231.38V47.44a5.68,5.68,0,0,0-1.19-3.68,4.08,4.08,0,0,0-3.39-1.48,4.25,4.25,0,0,0-3.45,1.48,5.67,5.67,0,0,0-1.24,3.79V65.92H211.56V47.44a5.68,5.68,0,0,0-1.18-3.68A4.08,4.08,0,0,0,207,42.28a4.25,4.25,0,0,0-3.45,1.48,5.67,5.67,0,0,0-1.24,3.79V65.92Z"/><path class="cls-1" d="M254.38,31.39a5.51,5.51,0,0,1-4.26-1.48,5.36,5.36,0,0,1-1.36-3.79,5.38,5.38,0,0,1,1.36-3.8,6.78,6.78,0,0,1,8.43,0,5.5,5.5,0,0,1,1.33,3.8,5.47,5.47,0,0,1-1.33,3.79,5.34,5.34,0,0,1-4.17,1.48m-5.33,2.55h10.54v32H249.05Z"/><path class="cls-1" d="M280,67q-7,0-11-2.87A10.1,10.1,0,0,1,264.8,56h9.27a3.7,3.7,0,0,0,1.8,2.49,7.85,7.85,0,0,0,4.4,1,9.05,9.05,0,0,0,3.5-.61,2.06,2.06,0,0,0,1.48-2,2.34,2.34,0,0,0-1.16-2,9.74,9.74,0,0,0-4.23-1.07l-2.2-.24q-6.14-.63-9-3.36a8.94,8.94,0,0,1-2.9-6.83,9.32,9.32,0,0,1,1.74-5.82,10.5,10.5,0,0,1,4.8-3.45,19.85,19.85,0,0,1,7-1.16q6.44,0,10.37,2.81a9.87,9.87,0,0,1,4.17,8.08h-9.26A3.84,3.84,0,0,0,283,41.44a6.25,6.25,0,0,0-3.82-1,6,6,0,0,0-2.93.63,2,2,0,0,0-1.13,1.8,1.92,1.92,0,0,0,1.08,1.8,10.38,10.38,0,0,0,3.44.86l2.2.24q6.15.63,9.47,3.39a8.87,8.87,0,0,1,3.34,7.21A9.21,9.21,0,0,1,292.87,62a11.09,11.09,0,0,1-5,3.65A21.44,21.44,0,0,1,280,67"/><path class="cls-1" d="M312.59,67q-6.94,0-10.94-2.87A10.08,10.08,0,0,1,297.36,56h9.27a3.69,3.69,0,0,0,1.79,2.49,7.88,7.88,0,0,0,4.41,1,9.05,9.05,0,0,0,3.5-.61,2.07,2.07,0,0,0,1.48-2,2.34,2.34,0,0,0-1.16-2,9.74,9.74,0,0,0-4.23-1.07l-2.2-.24q-6.14-.63-9-3.36a9,9,0,0,1-2.89-6.83A9.32,9.32,0,0,1,300,37.62a10.48,10.48,0,0,1,4.81-3.45,19.81,19.81,0,0,1,7-1.16q6.44,0,10.37,2.81a9.87,9.87,0,0,1,4.17,8.08h-9.27a3.79,3.79,0,0,0-1.56-2.46,6.28,6.28,0,0,0-3.83-1,6,6,0,0,0-2.92.63,2,2,0,0,0-1.13,1.8,1.93,1.93,0,0,0,1.07,1.8,10.45,10.45,0,0,0,3.45.86l2.2.24q6.14.63,9.47,3.39a8.89,8.89,0,0,1,3.33,7.21A9.26,9.26,0,0,1,325.43,62a11.09,11.09,0,0,1-5,3.65,21.49,21.49,0,0,1-7.8,1.28"/><path class="cls-1" d="M337.85,31.39a5.48,5.48,0,0,1-4.25-1.48,5.36,5.36,0,0,1-1.36-3.79,5.38,5.38,0,0,1,1.36-3.8,6.78,6.78,0,0,1,8.43,0,5.5,5.5,0,0,1,1.33,3.8A5.47,5.47,0,0,1,342,29.91a5.35,5.35,0,0,1-4.18,1.48m-5.32,2.55h10.54v32H332.53Z"/><path class="cls-1" d="M21.91,43.44c0-22.67-7.76-35.38-11-41.07A5.51,5.51,0,0,0,6,0H3.07C.68,0-.69,1.52.43,6.52,2.32,15,6.07,25.9,6.07,43.44S2.32,73.44.43,81.88c-1.12,5,0,6.52,2.43,6.52H6A5.51,5.51,0,0,0,10.91,86c3.24-5.69,11-19.92,11-42.59"/><path class="cls-1" d="M52,43.56C52,19.24,36.78,8.19,31.8,3c-2-2.15-3.65-3-6.15-3H21.26C19,0,19,2.6,20.54,5.05c4.18,6.46,14.18,16.78,14.18,38.51s-10,33.33-14.18,39.8c-1.58,2.44-1.58,5,.72,5h4.39c2.5,0,4.12-.81,6.15-3C36.78,80.21,52,67.89,52,43.56"/><path class="cls-1" d="M82,44.18c0-32-24-40.59-32.28-43.08a27.92,27.92,0,0,0-8.85-1c-1.52,0-1.6,2.52-.39,3.36,8.61,6,24.9,16.71,24.9,40.77S49,79,40.43,85c-1.21.84-1.13,3.36.39,3.36a27.92,27.92,0,0,0,8.85-1C57.92,84.81,82,76.14,82,44.18"/></g></g></svg>