<svg xmlns="http://www.w3.org/2000/svg" viewBox="0 0 211.92 54.56"><defs><style>.cls-1{fill:#fff;}</style></defs><title>logo-blanco</title><g id="Capa_2" data-name="Capa 2"><g id="Capa_1-2" data-name="Capa 1"><path class="cls-1" d="M66.44,14.37h6.65V40.83H66.44Zm5.93,26.46V34.61h4.29a8.9,8.9,0,0,0,3-.49,6,6,0,0,0,3.7-3.61,8,8,0,0,0,.5-3,8.28,8.28,0,0,0-.5-3A5.71,5.71,0,0,0,82,22.36,5.94,5.94,0,0,0,79.68,21a9.44,9.44,0,0,0-3-.45H72.37V14.37h4a17.53,17.53,0,0,1,6.2,1A12.51,12.51,0,0,1,87,18.14a11.44,11.44,0,0,1,2.68,4.09,13.58,13.58,0,0,1,.9,4.94V28a12.86,12.86,0,0,1-.9,4.7A12.19,12.19,0,0,1,87,36.8a13,13,0,0,1-4.45,2.94,16.42,16.42,0,0,1-6.2,1.09Z"/><path class="cls-1" d="M103.8,41.4a12.74,12.74,0,0,1-4.65-.79,9.82,9.82,0,0,1-3.45-2.18,9.27,9.27,0,0,1-2.14-3.22,10.28,10.28,0,0,1-.74-3.89v-.86a10.45,10.45,0,0,1,.77-4,9.64,9.64,0,0,1,2.2-3.25A10,10,0,0,1,99.26,21a13.5,13.5,0,0,1,9.1,0,10,10,0,0,1,3.45,2.18,9.64,9.64,0,0,1,2.2,3.25,10.45,10.45,0,0,1,.77,4v.86a10.28,10.28,0,0,1-.74,3.89,9.27,9.27,0,0,1-2.14,3.22,9.82,9.82,0,0,1-3.45,2.18,12.74,12.74,0,0,1-4.65.79m0-5.44a4.47,4.47,0,0,0,2.49-.64,4.06,4.06,0,0,0,1.48-1.8,6.67,6.67,0,0,0,.5-2.63,6.47,6.47,0,0,0-.52-2.7,4.31,4.31,0,0,0-7.9,0,6.47,6.47,0,0,0-.52,2.7,6.67,6.67,0,0,0,.5,2.63,4,4,0,0,0,1.5,1.8,4.47,4.47,0,0,0,2.47.64"/><path class="cls-1" d="M118.35,40.68V21h5.15v8.51h-.29a14.57,14.57,0,0,1,.77-5.1,6.29,6.29,0,0,1,2.27-3,6.41,6.41,0,0,1,3.69-1h.28a5.86,5.86,0,0,1,6,4.06,14.58,14.58,0,0,1,.76,5.1h-1.5a14.57,14.57,0,0,1,.77-5.1,6.23,6.23,0,0,1,2.27-3,6.4,6.4,0,0,1,3.68-1h.29a6.58,6.58,0,0,1,3.74,1,6.43,6.43,0,0,1,2.32,3,13.85,13.85,0,0,1,.8,5.1V40.68h-6.5V29.28a3.5,3.5,0,0,0-.74-2.27A2.5,2.5,0,0,0,140,26.1a2.61,2.61,0,0,0-2.12.91,3.48,3.48,0,0,0-.77,2.34V40.68h-6.51V29.28a3.55,3.55,0,0,0-.73-2.27,2.53,2.53,0,0,0-2.09-.91,2.62,2.62,0,0,0-2.13.91,3.48,3.48,0,0,0-.77,2.34V40.68Z"/><path class="cls-1" d="M157,19.37a3.39,3.39,0,0,1-2.62-.91,3.33,3.33,0,0,1-.84-2.34,3.33,3.33,0,0,1,.84-2.34,4.17,4.17,0,0,1,5.2,0,3.36,3.36,0,0,1,.82,2.34,3.36,3.36,0,0,1-.82,2.34,3.31,3.31,0,0,1-2.58.91M153.72,21h6.5V40.68h-6.5Z"/><path class="cls-1" d="M172.84,41.33a11.36,11.36,0,0,1-6.75-1.77,6.24,6.24,0,0,1-2.65-5h5.72a2.29,2.29,0,0,0,1.11,1.54,4.86,4.86,0,0,0,2.72.64,5.68,5.68,0,0,0,2.16-.37,1.28,1.28,0,0,0,.91-1.24,1.44,1.44,0,0,0-.71-1.23,6.11,6.11,0,0,0-2.61-.66l-1.36-.15A9.39,9.39,0,0,1,165.8,31,5.56,5.56,0,0,1,164,26.81a5.8,5.8,0,0,1,1.07-3.59,6.59,6.59,0,0,1,3-2.13,12.14,12.14,0,0,1,4.33-.71,10.77,10.77,0,0,1,6.4,1.73,6.1,6.1,0,0,1,2.57,5h-5.72a2.32,2.32,0,0,0-1-1.52,3.83,3.83,0,0,0-2.36-.63,3.59,3.59,0,0,0-1.81.4,1.22,1.22,0,0,0-.7,1.1,1.18,1.18,0,0,0,.67,1.11,6.26,6.26,0,0,0,2.12.54l1.36.14a10.77,10.77,0,0,1,5.85,2.09,5.51,5.51,0,0,1,2,4.45,5.71,5.71,0,0,1-1.09,3.51,6.8,6.8,0,0,1-3.11,2.25,13.35,13.35,0,0,1-4.81.79"/><path class="cls-1" d="M192.94,41.33a11.4,11.4,0,0,1-6.76-1.77,6.24,6.24,0,0,1-2.65-5h5.72a2.33,2.33,0,0,0,1.11,1.54,4.89,4.89,0,0,0,2.72.64,5.64,5.64,0,0,0,2.16-.37,1.28,1.28,0,0,0,.91-1.24,1.42,1.42,0,0,0-.71-1.23,6.11,6.11,0,0,0-2.61-.66l-1.36-.15A9.39,9.39,0,0,1,185.89,31a5.55,5.55,0,0,1-1.78-4.22,5.74,5.74,0,0,1,1.07-3.59,6.48,6.48,0,0,1,3-2.13,12.08,12.08,0,0,1,4.32-.71,10.75,10.75,0,0,1,6.4,1.73,6.13,6.13,0,0,1,2.58,5h-5.72a2.34,2.34,0,0,0-1-1.52A3.83,3.83,0,0,0,192.4,25a3.59,3.59,0,0,0-1.81.4,1.21,1.21,0,0,0-.69,1.1,1.18,1.18,0,0,0,.66,1.11,6.33,6.33,0,0,0,2.13.54l1.35.14a10.77,10.77,0,0,1,5.85,2.09A5.52,5.52,0,0,1,202,34.78a5.77,5.77,0,0,1-1.09,3.51,6.85,6.85,0,0,1-3.11,2.25,13.35,13.35,0,0,1-4.81.79"/><path class="cls-1" d="M208.53,19.37a3.41,3.41,0,0,1-2.63-.91,3.33,3.33,0,0,1-.84-2.34,3.33,3.33,0,0,1,.84-2.34,4.17,4.17,0,0,1,5.2,0,3.36,3.36,0,0,1,.82,2.34,3.36,3.36,0,0,1-.82,2.34,3.28,3.28,0,0,1-2.57.91M205.24,21h6.51V40.68h-6.51Z"/><path class="cls-1" d="M13.52,26.81c0-14-4.78-21.83-6.79-25.35A3.39,3.39,0,0,0,3.7,0H1.89C.42,0-.43.94.26,4c1.17,5.2,3.49,12,3.49,22.78S1.43,45.33.26,50.54c-.69,3.08,0,4,1.51,4H3.7a3.39,3.39,0,0,0,3-1.46,51,51,0,0,0,6.79-26.29"/><path class="cls-1" d="M32.1,26.89c0-15-9.4-21.83-12.47-25.07A4.72,4.72,0,0,0,15.83,0H13.12c-1.42,0-1.42,1.61-.44,3.11,2.58,4,8.75,10.36,8.75,23.78s-6.17,20.57-8.75,24.56c-1,1.51-1,3.11.44,3.11h2.71a4.72,4.72,0,0,0,3.8-1.82C22.7,49.5,32.1,41.9,32.1,26.89"/><path class="cls-1" d="M50.58,27.27c0-19.73-14.83-25-19.92-26.59A17.09,17.09,0,0,0,25.2,0c-.95,0-1,1.55-.25,2.07,5.32,3.7,15.37,10.32,15.37,25.17S30.27,48.76,25,52.46c-.75.52-.7,2.07.25,2.07a17.09,17.09,0,0,0,5.46-.65C35.75,52.34,50.58,47,50.58,27.27"/></g></g></svg>